g MT_Road_01
v -5.846155 0.08461545 0
v -5.846155 0.08461545 -30
v -5.307693 0.0307693 -30
v -5.307693 0.0307693 0
v -6.192308 0.09999999 0
v -6.192308 0.09999999 -30
v -6.461539 0.09999999 0
v -6.461539 0.09999999 -30
v -6.5 0.05384599 0
v -6.5 0.05384599 -30
v -6.5 -3.725284E-08 0
v -6.5 0.05384599 -30
v -6.5 -3.725281E-08 -30
v 5.307693 0.03076921 0
v 5.307693 0.03076921 -30
v 5.846153 0.08461537 -30
v 5.846153 0.08461537 0
v 6.192308 0.09999999 -30
v 6.192308 0.09999999 0
v 6.461538 0.09999999 0
v 6.461538 0.09999999 -30
v 6.5 0.05384616 -30
v 6.5 0.05384616 0
v 6.5 -8.526511E-14 -30
v 6.5 -6.57252E-14 0
v 5.307693 0.03076921 0
v 2.692303 0.01 0
v 2.692303 0.01 -30
v 5.307693 0.03076921 -30
v -2.692314 0.01 -30
v -2.692314 0.01 0
v -5.307693 0.0307693 -30
v -5.307693 0.0307693 0
vt 0.6329863 0.008015294
vt 0.6355636 0.9912459
vt 0.6718931 0.9920365
vt 0.6762438 0.009221304
vt 0.5971694 0.007675845
vt 0.6036104 0.9904912
vt 0.564557 0.007453281
vt 0.5716836 0.9896995
vt 0.5558299 0.00720613
vt 0.5396743 0.9888374
vt 0.5480806 0.006941575
vt 0.5396743 0.9888374
vt 0.5078396 0.9878352
vt 0.499532 0.993661
vt 0.5356197 0.004773945
vt 0.4990281 0.004423261
vt 0.4559742 0.9934472
vt 0.4668998 0.004076273
vt 0.4199628 0.9925442
vt 0.3871464 0.9916792
vt 0.434779 0.003835947
vt 0.4027179 0.003545642
vt 0.3783634 0.9915882
vt 0.3705631 0.003412039
vt 0.3705581 0.9915528
vt 0.704116 0.07713854
vt 0.6324326 0.07713824
vt 0.6324326 0.8370817
vt 0.704116 0.8370819
vt 0.484849 0.8370817
vt 0.484849 0.07713823
vt 0.4131656 0.837082
vt 0.4131657 0.07713852
vn 0.07196274 0.9974073 0
vn 0.07196274 0.9974073 0
vn 0.09949163 0.9950383 0
vn 0.09949163 0.9950383 0
vn 0.02218759 0.9997538 0
vn 0.02218759 0.9997538 0
vn -0.4241531 0.9055905 0
vn -0.4241531 0.9055905 0
vn -0.9402754 0.3404146 0
vn -0.9402754 0.3404146 0
vn -1 0 0
vn -0.9402754 0.3404146 0
vn -1 0 0
vn -0.09949163 0.9950383 0
vn -0.09949163 0.9950383 0
vn -0.07196274 0.9974073 0
vn -0.07196274 0.9974073 0
vn -0.02218759 0.9997538 0
vn -0.02218759 0.9997538 0
vn 0.4241531 0.9055905 0
vn 0.4241531 0.9055905 0
vn 0.9402754 0.3404146 0
vn 0.9402754 0.3404146 0
vn 1 0 0
vn 1 0 0
vn -0.007935047 0.9999685 0
vn -0.003967496 0.9999921 0
vn -0.003967496 0.9999921 0
vn -0.007935047 0.9999685 0
vn 0.003967496 0.9999921 0
vn 0.003967496 0.9999921 0
vn 0.007935047 0.9999685 0
vn 0.007935047 0.9999685 0
g MT_Road_01_0
f 3/3/3 2/2/2 1/1/1
f 4/4/4 3/3/3 1/1/1
f 1/1/1 2/2/2 5/5/5
f 2/2/2 6/6/6 5/5/5
f 5/5/5 6/6/6 7/7/7
f 6/6/6 8/8/8 7/7/7
f 7/7/7 8/8/8 9/9/9
f 8/8/8 10/10/10 9/9/9
f 9/9/9 12/12/12 11/11/11
f 12/12/12 13/13/13 11/11/11
f 16/16/16 15/15/15 14/14/14
f 17/17/17 16/16/16 14/14/14
f 18/18/18 16/16/16 17/17/17
f 19/19/19 18/18/18 17/17/17
f 18/18/18 19/19/19 20/20/20
f 21/21/21 18/18/18 20/20/20
f 21/21/21 20/20/20 22/22/22
f 20/20/20 23/23/23 22/22/22
f 24/24/24 22/22/22 23/23/23
f 25/25/25 24/24/24 23/23/23
g MT_Road_01_1
f 28/28/28 27/27/27 26/26/26
f 29/29/29 28/28/28 26/26/26
f 27/27/27 28/28/28 30/30/30
f 31/31/31 27/27/27 30/30/30
f 31/31/31 30/30/30 32/32/32
f 33/33/33 31/31/31 32/32/32
